<?xml version="1.0" encoding="utf-8"?>
<!-- Generator: Adobe Illustrator 19.0.0, SVG Export Plug-In . SVG Version: 6.00 Build 0)  -->
<svg version="1.1" id="Layer_1" xmlns="http://www.w3.org/2000/svg" xmlns:xlink="http://www.w3.org/1999/xlink" x="0px" y="0px"
	 viewBox="0 0 642 234" style="enable-background:new 0 0 642 234;" xml:space="preserve">
<style type="text/css">
	.st0{fill:#3F3F3F;}
	.st1{fill:#FA3232;}
</style>
<g id="XMLID_116_">
	<path id="XMLID_117_" class="st0" d="M273.5,135.6v8.5H269c-3.8,0-6.7-0.9-8.8-2.8c-2.1-1.9-3.2-5-3.2-9.3v-11.9h-4.4v-8.4h4.4
		v-7.9h9.9v7.9h6.5v8.4H267v12.1c0,1.3,0.3,2.2,0.8,2.7c0.5,0.5,1.4,0.8,2.6,0.8H273.5z"/>
	<path id="XMLID_119_" class="st0" d="M293.5,113.1c2-1.2,4.1-1.7,6.4-1.7V122H297c-2.6,0-4.7,0.6-6.1,1.7c-1.4,1.1-2.2,3-2.2,5.7
		v14.7h-9.9v-32.4h9.9v6.1C289.9,115.8,291.5,114.3,293.5,113.1z"/>
	<path id="XMLID_121_" class="st0" d="M322.2,113c1.8,1.1,3.1,2.6,3.9,4.6v-5.9h9.9v32.4h-9.9v-5.9c-0.9,1.9-2.2,3.5-3.9,4.6
		c-1.8,1.1-3.9,1.7-6.4,1.7c-2.7,0-5.1-0.7-7.2-2s-3.8-3.3-5-5.8c-1.2-2.5-1.8-5.5-1.8-8.8c0-3.4,0.6-6.4,1.8-8.8
		c1.2-2.5,2.9-4.4,5-5.7s4.5-2,7.2-2C318.3,111.3,320.5,111.9,322.2,113z M313.9,122.1c-1.3,1.4-1.9,3.3-1.9,5.8s0.6,4.4,1.9,5.8
		c1.3,1.4,3,2.1,5.1,2.1c2.1,0,3.8-0.7,5.1-2.1c1.3-1.4,2-3.3,2-5.7c0-2.4-0.7-4.4-2-5.8c-1.3-1.4-3-2.1-5.1-2.1
		C316.9,120,315.2,120.7,313.9,122.1z"/>
	<path id="XMLID_124_" class="st0" d="M343,98.9c1.1-1,2.5-1.5,4.3-1.5c1.8,0,3.2,0.5,4.3,1.5c1.1,1,1.6,2.2,1.6,3.7
		c0,1.5-0.5,2.7-1.6,3.7c-1.1,1-2.5,1.5-4.3,1.5c-1.8,0-3.2-0.5-4.3-1.5c-1.1-1-1.6-2.2-1.6-3.7C341.4,101.1,342,99.9,343,98.9z
		 M352.3,111.7v32.4h-9.9v-32.4H352.3z"/>
	<path id="XMLID_127_" class="st0" d="M387.9,115.1c2.2,2.5,3.3,5.9,3.3,10.2v18.8h-9.9v-17.6c0-2.2-0.6-3.9-1.7-5.1
		c-1.1-1.2-2.7-1.8-4.6-1.8c-2,0-3.6,0.6-4.8,1.9c-1.2,1.3-1.8,3.1-1.8,5.5v17.2h-9.9v-32.4h9.9v5.9c0.9-1.9,2.3-3.5,4.1-4.6
		c1.8-1.1,4-1.7,6.5-1.7C382.8,111.4,385.8,112.6,387.9,115.1z"/>
	<path id="XMLID_129_" class="st0" d="M427.6,129.7h-22.4c0.1,2.4,0.7,4.2,1.9,5.2c1.1,1.1,2.6,1.6,4.3,1.6c1.5,0,2.7-0.4,3.7-1.1
		s1.6-1.7,1.9-2.8h10.5c-0.4,2.3-1.4,4.3-2.8,6.1c-1.4,1.8-3.2,3.2-5.5,4.2s-4.7,1.5-7.4,1.5c-3.2,0-6-0.7-8.4-2
		c-2.5-1.3-4.4-3.3-5.8-5.8c-1.4-2.5-2.1-5.5-2.1-8.8c0-3.4,0.7-6.4,2.1-8.8c1.4-2.5,3.3-4.4,5.8-5.7c2.5-1.3,5.3-2,8.5-2
		c3.2,0,6,0.7,8.5,2c2.4,1.3,4.3,3.2,5.7,5.5s2,5.1,2,8.2C427.9,127.8,427.8,128.7,427.6,129.7z M416.1,120.7
		c-1.2-1.1-2.6-1.6-4.4-1.6c-1.8,0-3.3,0.5-4.5,1.6c-1.2,1.1-1.9,2.7-2,4.8h12.6C417.9,123.4,417.3,121.8,416.1,120.7z"/>
	<path id="XMLID_132_" class="st0" d="M447.1,113.1c2-1.2,4.1-1.7,6.4-1.7V122h-2.8c-2.6,0-4.7,0.6-6.1,1.7c-1.4,1.1-2.2,3-2.2,5.7
		v14.7h-9.9v-32.4h9.9v6.1C443.5,115.8,445.1,114.3,447.1,113.1z"/>
	<path id="XMLID_134_" class="st0" d="M478.6,114.4c2.5,2,4,4.8,4.6,8.1H474c-0.3-1.3-0.9-2.3-1.8-3.1c-0.9-0.8-2.1-1.1-3.6-1.1
		c-1.1,0-2,0.2-2.6,0.7c-0.6,0.5-0.9,1.2-0.9,2.1c0,1,0.5,1.8,1.6,2.3c1.1,0.5,2.7,1,5,1.5c2.5,0.6,4.5,1.2,6.1,1.8
		c1.6,0.6,3,1.6,4.1,2.9s1.7,3.2,1.7,5.5c0,1.9-0.5,3.5-1.5,4.9c-1,1.4-2.5,2.6-4.3,3.4c-1.9,0.8-4.1,1.2-6.7,1.2
		c-4.4,0-7.9-1-10.5-2.9c-2.6-1.9-4.2-4.7-4.8-8.3h9.6c0.2,1.4,0.7,2.5,1.8,3.2c1,0.7,2.3,1.1,4,1.1c1.1,0,2-0.3,2.6-0.8
		c0.6-0.5,0.9-1.2,0.9-2.1c0-1.1-0.5-1.9-1.6-2.4c-1.1-0.5-2.8-1-5.2-1.5c-2.4-0.5-4.4-1-5.9-1.6c-1.5-0.6-2.9-1.5-4-2.8
		c-1.1-1.3-1.7-3.1-1.7-5.3c0-2.9,1.1-5.2,3.3-7c2.2-1.8,5.3-2.7,9.3-2.7C472.9,111.3,476.2,112.3,478.6,114.4z"/>
	<path id="XMLID_136_" class="st0" d="M515.8,113.3c2.1,1.3,3.8,3.2,5,5.7s1.8,5.4,1.8,8.8c0,3.4-0.6,6.3-1.8,8.8
		c-1.2,2.5-2.9,4.4-5,5.8s-4.5,2-7.2,2c-2.5,0-4.6-0.6-6.4-1.7c-1.8-1.1-3.1-2.6-3.9-4.6v21.3h-9.9v-47.8h9.9v5.9
		c0.8-1.9,2.1-3.5,3.9-4.6c1.8-1.1,3.9-1.7,6.4-1.7C511.3,111.3,513.7,112,515.8,113.3z M500.3,122.1c-1.3,1.4-2,3.3-2,5.8
		c0,2.4,0.7,4.3,2,5.7c1.3,1.4,3,2.1,5.1,2.1c2.1,0,3.8-0.7,5.1-2.1c1.3-1.4,1.9-3.3,1.9-5.8s-0.6-4.4-1.9-5.8
		c-1.3-1.4-3-2.1-5.1-2.1C503.4,120,501.7,120.7,500.3,122.1z"/>
	<path id="XMLID_139_" class="st0" d="M546,113c1.8,1.1,3.1,2.6,3.9,4.6v-5.9h9.9v32.4H550v-5.9c-0.9,1.9-2.2,3.5-3.9,4.6
		c-1.8,1.1-3.9,1.7-6.4,1.7c-2.7,0-5.1-0.7-7.2-2s-3.8-3.3-5-5.8c-1.2-2.5-1.8-5.5-1.8-8.8c0-3.4,0.6-6.4,1.8-8.8
		c1.2-2.5,2.9-4.4,5-5.7s4.5-2,7.2-2C542.1,111.3,544.3,111.9,546,113z M537.7,122.1c-1.3,1.4-1.9,3.3-1.9,5.8s0.6,4.4,1.9,5.8
		c1.3,1.4,3,2.1,5.1,2.1c2.1,0,3.8-0.7,5.1-2.1c1.3-1.4,2-3.3,2-5.7c0-2.4-0.7-4.4-2-5.8c-1.3-1.4-3-2.1-5.1-2.1
		C540.7,120,539,120.7,537.7,122.1z"/>
	<path id="XMLID_142_" class="st0" d="M591.2,114.8c2.8,2.3,4.6,5.5,5.3,9.5h-10.5c-0.3-1.4-0.9-2.5-1.9-3.2c-1-0.8-2.2-1.2-3.7-1.2
		c-1.7,0-3.2,0.7-4.3,2.1c-1.1,1.4-1.7,3.4-1.7,6c0,2.6,0.6,4.6,1.7,6c1.1,1.4,2.6,2.1,4.3,2.1c1.5,0,2.7-0.4,3.7-1.2
		c1-0.8,1.6-1.9,1.9-3.2h10.5c-0.7,4-2.5,7.2-5.3,9.5c-2.8,2.3-6.3,3.5-10.5,3.5c-3.2,0-6-0.7-8.4-2c-2.5-1.3-4.4-3.3-5.8-5.8
		c-1.4-2.5-2.1-5.5-2.1-8.8c0-3.4,0.7-6.4,2.1-8.8c1.4-2.5,3.3-4.4,5.8-5.7c2.5-1.3,5.3-2,8.5-2
		C584.9,111.3,588.4,112.5,591.2,114.8z"/>
	<path id="XMLID_144_" class="st0" d="M631.4,129.7h-22.4c0.1,2.4,0.7,4.2,1.9,5.2c1.1,1.1,2.6,1.6,4.3,1.6c1.5,0,2.7-0.4,3.7-1.1
		s1.6-1.7,1.9-2.8h10.5c-0.4,2.3-1.4,4.3-2.8,6.1c-1.4,1.8-3.2,3.2-5.5,4.2s-4.7,1.5-7.4,1.5c-3.2,0-6-0.7-8.4-2
		c-2.5-1.3-4.4-3.3-5.8-5.8c-1.4-2.5-2.1-5.5-2.1-8.8c0-3.4,0.7-6.4,2.1-8.8c1.4-2.5,3.3-4.4,5.8-5.7c2.5-1.3,5.3-2,8.5-2
		c3.2,0,6,0.7,8.5,2c2.4,1.3,4.3,3.2,5.7,5.5s2,5.1,2,8.2C631.7,127.8,631.6,128.7,631.4,129.7z M619.9,120.7
		c-1.2-1.1-2.6-1.6-4.4-1.6c-1.8,0-3.3,0.5-4.5,1.6c-1.2,1.1-1.9,2.7-2,4.8h12.6C621.7,123.4,621.1,121.8,619.9,120.7z"/>
</g>
<g id="XMLID_111_">
	<path id="XMLID_112_" class="st1" d="M115.8,78.2v16.3H92.7v68.6H72V94.5H49.2V78.2H115.8z"/>
	<path id="XMLID_114_" class="st1" d="M182.1,151.6c-2.3,3.8-5.7,6.8-10.1,9c-4.4,2.2-9.8,3.4-16.2,3.4c-9.5,0-17.4-2.3-23.6-7
		c-6.2-4.6-9.5-11.1-10.1-19.5H144c0.3,3.2,1.5,5.7,3.4,7.6c2,1.8,4.5,2.8,7.5,2.8c2.6,0,4.7-0.7,6.2-2.2c1.5-1.4,2.3-3.4,2.3-5.8
		c0-2.2-0.7-4-2.1-5.4c-1.4-1.4-3.1-2.6-5.2-3.5c-2.1-0.9-5-2-8.7-3.3c-5.4-1.8-9.8-3.6-13.2-5.3c-3.4-1.7-6.3-4.3-8.8-7.7
		c-2.4-3.4-3.7-7.8-3.7-13.3c0-5,1.3-9.4,3.8-13.1c2.6-3.7,6.1-6.5,10.6-8.5c4.5-2,9.7-2.9,15.6-2.9c9.5,0,17,2.2,22.5,6.7
		c5.6,4.5,8.7,10.7,9.4,18.5h-22.2c-0.4-2.8-1.4-5-3.1-6.7c-1.6-1.6-3.9-2.5-6.7-2.5c-2.4,0-4.3,0.6-5.8,1.9
		c-1.5,1.3-2.2,3.2-2.2,5.6c0,2,0.7,3.7,2,5.1c1.3,1.4,3,2.5,5,3.4c2,0.9,4.9,2,8.7,3.4c5.4,1.8,9.9,3.7,13.3,5.5
		c3.4,1.8,6.4,4.4,8.9,7.9c2.5,3.4,3.7,7.9,3.7,13.5C185.5,143.7,184.3,147.8,182.1,151.6z"/>
</g>
<polygon id="XMLID_4_" class="st1" points="208.7,208.1 25.7,208.1 25.7,25.1 179.7,25.1 179.7,12.1 12.7,12.1 12.7,221.1 
	221.7,221.1 221.7,54.1 208.7,54.1 "/>
<circle id="XMLID_1_" class="st0" cx="206.4" cy="27.9" r="14.1"/>
</svg>
